<?xml version="1.0" standalone="no"?>
<!DOCTYPE svg PUBLIC "-//W3C//DTD SVG 20010904//EN"
 "http://www.w3.org/TR/2001/REC-SVG-20010904/DTD/svg10.dtd">
<svg version="1.0" xmlns="http://www.w3.org/2000/svg"
 width="1303.000000pt" height="1303.000000pt" viewBox="0 0 1303.000000 1303.000000"
 preserveAspectRatio="xMidYMid meet">
<metadata>
Created by potrace 1.14, written by Peter Selinger 2001-2017
</metadata>
<g transform="translate(0.000000,1303.000000) scale(0.100000,-0.100000)"
fill="#000000" stroke="none">
<path d="M3012 7904 c-135 -67 -120 -259 23 -309 96 -32 204 29 220 124 25
146 -113 250 -243 185z"/>
<path d="M3444 7914 c-48 -16 -89 -61 -103 -111 -15 -52 -14 -72 8 -120 49
-107 192 -129 276 -43 39 40 40 42 40 113 0 63 -4 77 -25 104 -45 56 -128 80
-196 57z"/>
<path d="M6113 7441 c-294 -102 -430 -441 -288 -721 31 -62 130 -168 199 -214
68 -45 183 -102 254 -127 188 -65 379 -217 444 -355 37 -78 40 -92 43 -189 6
-164 -60 -302 -192 -405 -88 -67 -171 -94 -288 -94 -113 0 -184 21 -266 77
-88 58 -139 126 -184 240 -41 106 -61 127 -123 127 -48 0 -86 -28 -102 -74
-13 -39 1 -87 58 -205 98 -203 291 -348 502 -376 84 -12 228 -7 279 10 11 3
29 8 41 10 12 2 61 23 108 46 70 34 102 58 172 128 47 47 100 111 118 142 28
49 86 189 82 197 -1 1 2 24 6 50 36 240 -54 486 -238 643 -114 97 -214 158
-343 209 -285 112 -407 232 -408 401 0 154 120 282 277 293 69 5 117 -7 178
-45 57 -37 94 -85 124 -158 36 -91 103 -123 169 -83 44 27 55 66 38 131 -31
125 -97 212 -217 294 -76 50 -142 70 -256 73 -94 3 -113 1 -187 -25z"/>
<path d="M7830 7448 c-32 -17 -51 -35 -67 -66 l-21 -43 1 -1062 c2 -1033 3
-1063 22 -1094 51 -86 188 -79 227 12 10 24 13 205 13 872 0 463 3 839 6 835
7 -7 598 -1026 667 -1149 48 -85 94 -105 153 -68 9 6 74 111 146 235 396 687
566 980 570 976 2 -2 4 -379 4 -838 0 -782 1 -837 18 -869 33 -63 117 -87 178
-49 70 42 65 -48 65 1145 l0 1075 -23 34 c-46 67 -120 90 -191 58 -24 -10 -48
-25 -55 -33 -9 -12 -136 -227 -208 -354 -12 -22 -132 -229 -265 -460 -134
-231 -252 -437 -262 -457 -11 -21 -23 -38 -27 -38 -7 0 -20 20 -53 79 -11 20
-105 182 -208 361 -103 179 -197 341 -208 360 -11 19 -39 69 -64 110 -25 41
-57 98 -73 125 -114 205 -160 276 -190 295 -52 32 -103 35 -155 8z"/>
<path d="M10143 7455 c-17 -7 -35 -24 -39 -37 -4 -12 -9 -516 -9 -1118 -2
-1156 -2 -1145 43 -1169 14 -8 193 -11 559 -11 502 0 541 1 572 18 90 48 88
182 -2 229 -26 13 -91 15 -469 15 l-438 1 -1 21 c-4 88 -1 747 3 752 3 2 198
5 434 5 452 0 463 1 511 47 49 48 34 149 -30 196 -27 20 -41 21 -474 21 l-446
0 1 385 c0 212 1 387 1 390 1 3 201 5 445 5 434 0 445 1 473 21 85 63 77 181
-17 229 -37 18 -1073 18 -1117 0z"/>
<path d="M11634 7459 c-12 -4 -29 -18 -38 -31 -14 -20 -16 -129 -16 -1131 0
-1029 1 -1111 17 -1138 12 -19 28 -31 51 -35 35 -7 300 2 362 11 287 45 491
138 656 300 149 146 240 290 305 482 15 46 26 83 24 83 -2 0 1 15 6 33 23 80
32 317 16 438 -38 287 -210 582 -444 761 -116 89 -313 176 -462 203 -138 25
-434 40 -477 24z m431 -289 c181 -35 310 -104 435 -231 126 -127 220 -301 245
-454 4 -22 9 -51 11 -65 2 -14 5 -70 5 -125 2 -165 -32 -306 -105 -438 -57
-105 -69 -120 -167 -218 -148 -148 -320 -223 -566 -245 -37 -3 -71 -8 -74 -10
-4 -2 -5 1785 -1 1809 2 10 103 0 217 -23z"/>
<path d="M4284 7438 c-82 -22 -99 -146 -26 -194 22 -14 58 -17 267 -17 l242 0
0 -1005 c0 -984 1 -1004 20 -1030 45 -61 117 -65 169 -11 l29 30 0 1007 0
1007 241 1 c205 1 244 4 266 18 68 44 68 139 1 183 -25 16 -72 18 -605 18
-317 0 -589 -3 -604 -7z"/>
<path d="M7263 7435 c-17 -7 -40 -26 -50 -41 -17 -27 -18 -79 -18 -1097 0
-1180 -4 -1116 62 -1144 47 -19 97 -8 128 29 21 25 25 40 26 96 0 37 0 522 1
1079 l0 1012 -21 30 c-19 27 -32 34 -81 46 -8 2 -29 -2 -47 -10z"/>
<path d="M1029 7435 c-2 -2 -24 -5 -49 -8 -112 -13 -279 -65 -379 -119 -140
-76 -279 -194 -371 -316 -88 -118 -176 -312 -195 -432 -3 -19 -10 -59 -16 -89
-13 -62 -16 -282 -5 -356 15 -107 18 -121 27 -160 107 -428 437 -737 875 -821
96 -18 335 -25 439 -11 270 34 507 151 681 337 114 122 185 237 238 387 51
144 80 399 49 425 -12 10 -104 13 -422 13 -223 1 -420 -3 -437 -7 -41 -11 -63
-37 -71 -82 -7 -47 10 -88 49 -110 28 -17 59 -19 340 -19 170 0 311 -4 313 -7
3 -4 -5 -40 -16 -81 -50 -181 -194 -379 -354 -488 -34 -23 -77 -47 -165 -91
-31 -15 -137 -43 -210 -56 -75 -13 -311 -12 -380 1 -277 54 -526 236 -644 474
-76 152 -100 261 -101 451 0 184 21 292 85 428 89 188 255 354 435 436 325
149 739 113 1005 -88 76 -57 113 -94 195 -196 42 -52 70 -77 93 -84 100 -28
176 80 117 170 -58 89 -185 220 -280 289 -145 105 -266 154 -490 201 -33 7
-350 15 -356 9z"/>
<path d="M3255 7371 c-11 -5 -28 -17 -37 -28 -10 -11 -65 -150 -124 -309 -198
-542 -317 -869 -354 -974 -21 -58 -79 -217 -130 -355 -124 -338 -160 -441
-160 -460 0 -29 30 -74 59 -89 15 -8 43 -13 62 -11 71 9 73 13 228 443 l146
402 350 0 350 0 134 -373 c74 -204 143 -389 153 -410 25 -51 76 -74 129 -58
48 14 79 61 73 108 -2 19 -170 491 -373 1050 -260 716 -376 1023 -393 1039
-26 25 -83 38 -113 25z m55 -454 c0 -7 18 -59 39 -117 90 -242 211 -579 211
-587 0 -4 -119 -8 -265 -8 -146 0 -265 3 -265 6 0 6 70 202 197 549 19 52 42
114 50 138 13 38 33 49 33 19z"/>
</g>
</svg>
